<?xml version="1.0" encoding="UTF-8" standalone="no"?><svg xmlns="http://www.w3.org/2000/svg" xmlns:xlink="http://www.w3.org/1999/xlink" contentStyleType="text/css" height="1170px" preserveAspectRatio="none" style="width:1915px;height:1170px;background:#010409;" version="1.1" viewBox="0 0 1915 1170" width="1915px" zoomAndPan="magnify"><defs/><g><rect fill="#010409" height="1170" style="stroke:none;stroke-width:1.0;" width="1915" x="0" y="0"/><!--cluster helpers--><g id="cluster_helpers"><path d="M1103,6 L1164,6 A3.75,3.75 0 0 1 1166.5,8.5 L1173.5,28.2969 L1228,28.2969 A2.5,2.5 0 0 1 1230.5,30.7969 L1230.5,395.5 A2.5,2.5 0 0 1 1228,398 L1103,398 A2.5,2.5 0 0 1 1100.5,395.5 L1100.5,8.5 A2.5,2.5 0 0 1 1103,6 " fill="none" style="stroke:#FFFFFF;stroke-width:1.5;"/><line style="stroke:#FFFFFF;stroke-width:1.5;" x1="1100.5" x2="1173.5" y1="28.2969" y2="28.2969"/><text fill="#FFFFFF" font-family="sans-serif" font-size="14" font-weight="bold" lengthAdjust="spacing" textLength="60" x="1104.5" y="20.9951">helpers</text></g><!--cluster game--><g id="cluster_game"><path d="M1249,448 L1293,448 A3.75,3.75 0 0 1 1295.5,450.5 L1302.5,470.2969 L1798,470.2969 A2.5,2.5 0 0 1 1800.5,472.7969 L1800.5,1160.5 A2.5,2.5 0 0 1 1798,1163 L1249,1163 A2.5,2.5 0 0 1 1246.5,1160.5 L1246.5,450.5 A2.5,2.5 0 0 1 1249,448 " fill="none" style="stroke:#FFFFFF;stroke-width:1.5;"/><line style="stroke:#FFFFFF;stroke-width:1.5;" x1="1246.5" x2="1302.5" y1="470.2969" y2="470.2969"/><text fill="#FFFFFF" font-family="sans-serif" font-size="14" font-weight="bold" lengthAdjust="spacing" textLength="43" x="1250.5" y="462.9951">game</text></g><!--cluster bot--><g id="cluster_bot"><path d="M1257,63 L1284,63 A3.75,3.75 0 0 1 1286.5,65.5 L1293.5,85.2969 L1906,85.2969 A2.5,2.5 0 0 1 1908.5,87.7969 L1908.5,338.5 A2.5,2.5 0 0 1 1906,341 L1257,341 A2.5,2.5 0 0 1 1254.5,338.5 L1254.5,65.5 A2.5,2.5 0 0 1 1257,63 " fill="none" style="stroke:#FFFFFF;stroke-width:1.5;"/><line style="stroke:#FFFFFF;stroke-width:1.5;" x1="1254.5" x2="1293.5" y1="85.2969" y2="85.2969"/><text fill="#FFFFFF" font-family="sans-serif" font-size="14" font-weight="bold" lengthAdjust="spacing" textLength="26" x="1258.5" y="77.9951">bot</text></g><!--class helpers.color--><g id="elem_helpers.color"><rect codeLine="113" fill="#222222" height="341.3438" id="helpers.color" rx="2.5" ry="2.5" style="stroke:#FFFFFF;stroke-width:0.5;" width="98" x="1116.5" y="41"/><ellipse cx="1145.9" cy="57" fill="#EB937F" rx="11" ry="11" style="stroke:#181818;stroke-width:1.0;"/><path d="M1150.0094,63 L1142.2906,63 L1142.2906,50.6094 L1150.0094,50.6094 L1150.0094,52.7656 L1144.7438,52.7656 L1144.7438,55.4375 L1149.5094,55.4375 L1149.5094,57.5938 L1144.7438,57.5938 L1144.7438,60.8438 L1150.0094,60.8438 L1150.0094,63 Z " fill="#FFFFFF"/><text fill="#FFFFFF" font-family="sans-serif" font-size="14" lengthAdjust="spacing" textLength="34" x="1163.1" y="61.8467">color</text><line style="stroke:#FFFFFF;stroke-width:0.5;" x1="1117.5" x2="1213.5" y1="73" y2="73"/><text fill="#FFFFFF" font-family="sans-serif" font-size="14" lengthAdjust="spacing" textLength="36" x="1122.5" y="89.9951">black</text><text fill="#FFFFFF" font-family="sans-serif" font-size="14" lengthAdjust="spacing" textLength="61" x="1122.5" y="106.292">black_bg</text><text fill="#FFFFFF" font-family="sans-serif" font-size="14" lengthAdjust="spacing" textLength="30" x="1122.5" y="122.5889">blue</text><text fill="#FFFFFF" font-family="sans-serif" font-size="14" lengthAdjust="spacing" textLength="55" x="1122.5" y="138.8857">blue_bg</text><text fill="#FFFFFF" font-family="sans-serif" font-size="14" lengthAdjust="spacing" textLength="30" x="1122.5" y="155.1826">bold</text><text fill="#FFFFFF" font-family="sans-serif" font-size="14" lengthAdjust="spacing" textLength="32" x="1122.5" y="171.4795">cyan</text><text fill="#FFFFFF" font-family="sans-serif" font-size="14" lengthAdjust="spacing" textLength="57" x="1122.5" y="187.7764">cyan_bg</text><text fill="#FFFFFF" font-family="sans-serif" font-size="14" lengthAdjust="spacing" textLength="41" x="1122.5" y="204.0732">green</text><text fill="#FFFFFF" font-family="sans-serif" font-size="14" lengthAdjust="spacing" textLength="66" x="1122.5" y="220.3701">green_bg</text><text fill="#FFFFFF" font-family="sans-serif" font-size="14" lengthAdjust="spacing" textLength="61" x="1122.5" y="236.667">magenta</text><text fill="#FFFFFF" font-family="sans-serif" font-size="14" lengthAdjust="spacing" textLength="86" x="1122.5" y="252.9639">magenta_bg</text><text fill="#FFFFFF" font-family="sans-serif" font-size="14" lengthAdjust="spacing" textLength="23" x="1122.5" y="269.2607">red</text><text fill="#FFFFFF" font-family="sans-serif" font-size="14" lengthAdjust="spacing" textLength="48" x="1122.5" y="285.5576">red_bg</text><text fill="#FFFFFF" font-family="sans-serif" font-size="14" lengthAdjust="spacing" textLength="36" x="1122.5" y="301.8545">reset</text><text fill="#FFFFFF" font-family="sans-serif" font-size="14" lengthAdjust="spacing" textLength="37" x="1122.5" y="318.1514">white</text><text fill="#FFFFFF" font-family="sans-serif" font-size="14" lengthAdjust="spacing" textLength="62" x="1122.5" y="334.4482">white_bg</text><text fill="#FFFFFF" font-family="sans-serif" font-size="14" lengthAdjust="spacing" textLength="42" x="1122.5" y="350.7451">yellow</text><text fill="#FFFFFF" font-family="sans-serif" font-size="14" lengthAdjust="spacing" textLength="67" x="1122.5" y="367.042">yellow_bg</text><line style="stroke:#FFFFFF;stroke-width:0.5;" x1="1117.5" x2="1213.5" y1="374.3438" y2="374.3438"/></g><!--class game.Game--><g id="elem_game.Game"><rect codeLine="137" fill="#222222" height="227.2656" id="game.Game" rx="2.5" ry="2.5" style="stroke:#FFFFFF;stroke-width:0.5;" width="522" x="1262.5" y="483"/><ellipse cx="1498.75" cy="499" fill="#ADD1B2" rx="11" ry="11" style="stroke:#181818;stroke-width:1.0;"/><path d="M1501.7188,504.6406 Q1501.1406,504.9375 1500.5,505.0859 Q1499.8594,505.2344 1499.1563,505.2344 Q1496.6563,505.2344 1495.3359,503.5859 Q1494.0156,501.9375 1494.0156,498.8125 Q1494.0156,495.6875 1495.3359,494.0313 Q1496.6563,492.375 1499.1563,492.375 Q1499.8594,492.375 1500.5078,492.5313 Q1501.1563,492.6875 1501.7188,492.9844 L1501.7188,495.7031 Q1501.0938,495.125 1500.5,494.8516 Q1499.9063,494.5781 1499.2813,494.5781 Q1497.9375,494.5781 1497.25,495.6484 Q1496.5625,496.7188 1496.5625,498.8125 Q1496.5625,500.9063 1497.25,501.9766 Q1497.9375,503.0469 1499.2813,503.0469 Q1499.9063,503.0469 1500.5,502.7734 Q1501.0938,502.5 1501.7188,501.9219 L1501.7188,504.6406 Z " fill="#FFFFFF"/><text fill="#FFFFFF" font-family="sans-serif" font-size="14" lengthAdjust="spacing" textLength="41" x="1519.25" y="503.8467">Game</text><line style="stroke:#FFFFFF;stroke-width:0.5;" x1="1263.5" x2="1783.5" y1="515" y2="515"/><rect fill="none" height="6" style="stroke:#C82930;stroke-width:1.0;" width="6" x="1270.5" y="525.6484"/><text fill="#FFFFFF" font-family="sans-serif" font-size="14" lengthAdjust="spacing" textLength="143" x="1282.5" y="531.9951">height : unsigned int</text><rect fill="none" height="6" style="stroke:#C82930;stroke-width:1.0;" width="6" x="1270.5" y="541.9453"/><text fill="#FFFFFF" font-family="sans-serif" font-size="14" lengthAdjust="spacing" textLength="136" x="1282.5" y="548.292">width : unsigned int</text><rect fill="none" height="6" style="stroke:#C82930;stroke-width:1.0;" width="6" x="1270.5" y="558.2422"/><text fill="#FFFFFF" font-family="sans-serif" font-size="14" lengthAdjust="spacing" textLength="177" x="1282.5" y="564.5889">players : vector&lt;Player&gt;*</text><line style="stroke:#FFFFFF;stroke-width:0.5;" x1="1263.5" x2="1783.5" y1="571.8906" y2="571.8906"/><ellipse cx="1273.5" cy="585.5391" fill="#84BE84" rx="3" ry="3" style="stroke:#038048;stroke-width:1.0;"/><text fill="#FFFFFF" font-family="sans-serif" font-size="14" lengthAdjust="spacing" textLength="496" x="1282.5" y="588.8857">Game(unsigned int width, unsigned int height, vector&lt;Player&gt;* players)</text><ellipse cx="1273.5" cy="601.8359" fill="#84BE84" rx="3" ry="3" style="stroke:#038048;stroke-width:1.0;"/><text fill="#FFFFFF" font-family="sans-serif" font-size="14" lengthAdjust="spacing" textLength="219" x="1282.5" y="605.1826">Game(vector&lt;Player&gt;* players)</text><ellipse cx="1273.5" cy="618.1328" fill="#84BE84" rx="3" ry="3" style="stroke:#038048;stroke-width:1.0;"/><text fill="#FFFFFF" font-family="sans-serif" font-size="14" lengthAdjust="spacing" textLength="122" x="1282.5" y="621.4795">isRunning() : bool</text><ellipse cx="1273.5" cy="634.4297" fill="#84BE84" rx="3" ry="3" style="stroke:#038048;stroke-width:1.0;"/><text fill="#FFFFFF" font-family="sans-serif" font-size="14" lengthAdjust="spacing" textLength="177" x="1282.5" y="637.7764">getHeight() : unsigned int</text><ellipse cx="1273.5" cy="650.7266" fill="#84BE84" rx="3" ry="3" style="stroke:#038048;stroke-width:1.0;"/><text fill="#FFFFFF" font-family="sans-serif" font-size="14" lengthAdjust="spacing" textLength="171" x="1282.5" y="654.0732">getWidth() : unsigned int</text><ellipse cx="1273.5" cy="667.0234" fill="#84BE84" rx="3" ry="3" style="stroke:#038048;stroke-width:1.0;"/><text fill="#FFFFFF" font-family="sans-serif" font-size="14" lengthAdjust="spacing" textLength="210" x="1282.5" y="670.3701">getPlayers() : vector&lt;Player&gt;*</text><ellipse cx="1273.5" cy="683.3203" fill="#84BE84" rx="3" ry="3" style="stroke:#038048;stroke-width:1.0;"/><text fill="#FFFFFF" font-family="sans-serif" font-size="14" lengthAdjust="spacing" textLength="124" x="1282.5" y="686.667">gameLoop() : void</text><ellipse cx="1273.5" cy="699.6172" fill="#84BE84" rx="3" ry="3" style="stroke:#038048;stroke-width:1.0;"/><text fill="#FFFFFF" font-family="sans-serif" font-size="14" lengthAdjust="spacing" textLength="82" x="1282.5" y="702.9639">start() : void</text></g><!--class game.Player--><g id="elem_game.Player"><rect codeLine="151" fill="#222222" height="194.6719" id="game.Player" rx="2.5" ry="2.5" style="stroke:#FFFFFF;stroke-width:0.5;" width="264" x="1326.5" y="811"/><ellipse cx="1433.75" cy="827" fill="#ADD1B2" rx="11" ry="11" style="stroke:#181818;stroke-width:1.0;"/><path d="M1436.7188,832.6406 Q1436.1406,832.9375 1435.5,833.0859 Q1434.8594,833.2344 1434.1563,833.2344 Q1431.6563,833.2344 1430.3359,831.5859 Q1429.0156,829.9375 1429.0156,826.8125 Q1429.0156,823.6875 1430.3359,822.0313 Q1431.6563,820.375 1434.1563,820.375 Q1434.8594,820.375 1435.5078,820.5313 Q1436.1563,820.6875 1436.7188,820.9844 L1436.7188,823.7031 Q1436.0938,823.125 1435.5,822.8516 Q1434.9063,822.5781 1434.2813,822.5781 Q1432.9375,822.5781 1432.25,823.6484 Q1431.5625,824.7188 1431.5625,826.8125 Q1431.5625,828.9063 1432.25,829.9766 Q1432.9375,831.0469 1434.2813,831.0469 Q1434.9063,831.0469 1435.5,830.7734 Q1436.0938,830.5 1436.7188,829.9219 L1436.7188,832.6406 Z " fill="#FFFFFF"/><text fill="#FFFFFF" font-family="sans-serif" font-size="14" lengthAdjust="spacing" textLength="41" x="1454.25" y="831.8467">Player</text><line style="stroke:#FFFFFF;stroke-width:0.5;" x1="1327.5" x2="1589.5" y1="843" y2="843"/><rect fill="none" height="6" style="stroke:#C82930;stroke-width:1.0;" width="6" x="1334.5" y="853.6484"/><text fill="#FFFFFF" font-family="sans-serif" font-size="14" lengthAdjust="spacing" textLength="94" x="1346.5" y="859.9951">pos : position</text><rect fill="none" height="6" style="stroke:#C82930;stroke-width:1.0;" width="6" x="1334.5" y="869.9453"/><text fill="#FFFFFF" font-family="sans-serif" font-size="14" lengthAdjust="spacing" textLength="106" x="1346.5" y="876.292">m_color : string</text><rect fill="none" height="6" style="stroke:#C82930;stroke-width:1.0;" width="6" x="1334.5" y="886.2422"/><text fill="#FFFFFF" font-family="sans-serif" font-size="14" lengthAdjust="spacing" textLength="111" x="1346.5" y="892.5889">m_name : string</text><rect fill="none" height="6" style="stroke:#C82930;stroke-width:1.0;" width="6" x="1334.5" y="902.5391"/><text fill="#FFFFFF" font-family="sans-serif" font-size="14" lengthAdjust="spacing" textLength="177" x="1346.5" y="908.8857">trace : vector&lt;position&gt;*</text><line style="stroke:#FFFFFF;stroke-width:0.5;" x1="1327.5" x2="1589.5" y1="916.1875" y2="916.1875"/><ellipse cx="1337.5" cy="929.8359" fill="#84BE84" rx="3" ry="3" style="stroke:#038048;stroke-width:1.0;"/><text fill="#FFFFFF" font-family="sans-serif" font-size="14" lengthAdjust="spacing" textLength="238" x="1346.5" y="933.1826">Player(string i_name, string i_color)</text><ellipse cx="1337.5" cy="946.1328" fill="#84BE84" rx="3" ry="3" style="stroke:#038048;stroke-width:1.0;"/><text fill="#FFFFFF" font-family="sans-serif" font-size="14" lengthAdjust="spacing" textLength="127" x="1346.5" y="949.4795">getPos() : position</text><ellipse cx="1337.5" cy="962.4297" fill="#84BE84" rx="3" ry="3" style="stroke:#038048;stroke-width:1.0;"/><text fill="#FFFFFF" font-family="sans-serif" font-size="14" lengthAdjust="spacing" textLength="121" x="1346.5" y="965.7764">getColor() : string</text><ellipse cx="1337.5" cy="978.7266" fill="#84BE84" rx="3" ry="3" style="stroke:#038048;stroke-width:1.0;"/><text fill="#FFFFFF" font-family="sans-serif" font-size="14" lengthAdjust="spacing" textLength="125" x="1346.5" y="982.0732">getName() : string</text><ellipse cx="1337.5" cy="995.0234" fill="#84BE84" rx="3" ry="3" style="stroke:#038048;stroke-width:1.0;"/><text fill="#FFFFFF" font-family="sans-serif" font-size="14" lengthAdjust="spacing" textLength="214" x="1346.5" y="998.3701">getTrace() : vector&lt;position&gt;*</text></g><!--class game.Player::position--><g id="elem_game.Player::position"><rect codeLine="163" fill="#222222" height="80.5938" id="game.Player::position" rx="2.5" ry="2.5" style="stroke:#FFFFFF;stroke-width:0.5;" width="138" x="1389.5" y="1066"/><ellipse cx="1404.5" cy="1082" fill="#ADD1B2" rx="11" ry="11" style="stroke:#181818;stroke-width:1.0;"/><path d="M1407.4688,1087.6406 Q1406.8906,1087.9375 1406.25,1088.0859 Q1405.6094,1088.2344 1404.9063,1088.2344 Q1402.4063,1088.2344 1401.0859,1086.5859 Q1399.7656,1084.9375 1399.7656,1081.8125 Q1399.7656,1078.6875 1401.0859,1077.0313 Q1402.4063,1075.375 1404.9063,1075.375 Q1405.6094,1075.375 1406.2578,1075.5313 Q1406.9063,1075.6875 1407.4688,1075.9844 L1407.4688,1078.7031 Q1406.8438,1078.125 1406.25,1077.8516 Q1405.6563,1077.5781 1405.0313,1077.5781 Q1403.6875,1077.5781 1403,1078.6484 Q1402.3125,1079.7188 1402.3125,1081.8125 Q1402.3125,1083.9063 1403,1084.9766 Q1403.6875,1086.0469 1405.0313,1086.0469 Q1405.6563,1086.0469 1406.25,1085.7734 Q1406.8438,1085.5 1407.4688,1084.9219 L1407.4688,1087.6406 Z " fill="#FFFFFF"/><text fill="#FFFFFF" font-family="sans-serif" font-size="14" lengthAdjust="spacing" textLength="106" x="1418.5" y="1086.8467">Player::position</text><line style="stroke:#FFFFFF;stroke-width:0.5;" x1="1390.5" x2="1526.5" y1="1098" y2="1098"/><ellipse cx="1400.5" cy="1111.6484" fill="none" rx="3" ry="3" style="stroke:#038048;stroke-width:1.0;"/><text fill="#FFFFFF" font-family="sans-serif" font-size="14" lengthAdjust="spacing" textLength="37" x="1409.5" y="1114.9951">x : int</text><ellipse cx="1400.5" cy="1127.9453" fill="none" rx="3" ry="3" style="stroke:#038048;stroke-width:1.0;"/><text fill="#FFFFFF" font-family="sans-serif" font-size="14" lengthAdjust="spacing" textLength="37" x="1409.5" y="1131.292">y : int</text><line style="stroke:#FFFFFF;stroke-width:0.5;" x1="1390.5" x2="1526.5" y1="1138.5938" y2="1138.5938"/></g><!--class bot.Bot--><g id="elem_bot.Bot"><rect codeLine="171" fill="#222222" height="227.2656" id="bot.Bot" rx="2.5" ry="2.5" style="stroke:#FFFFFF;stroke-width:0.5;" width="621" x="1271" y="98"/><ellipse cx="1565.25" cy="114" fill="#ADD1B2" rx="11" ry="11" style="stroke:#181818;stroke-width:1.0;"/><path d="M1568.2188,119.6406 Q1567.6406,119.9375 1567,120.0859 Q1566.3594,120.2344 1565.6563,120.2344 Q1563.1563,120.2344 1561.8359,118.5859 Q1560.5156,116.9375 1560.5156,113.8125 Q1560.5156,110.6875 1561.8359,109.0313 Q1563.1563,107.375 1565.6563,107.375 Q1566.3594,107.375 1567.0078,107.5313 Q1567.6563,107.6875 1568.2188,107.9844 L1568.2188,110.7031 Q1567.5938,110.125 1567,109.8516 Q1566.4063,109.5781 1565.7813,109.5781 Q1564.4375,109.5781 1563.75,110.6484 Q1563.0625,111.7188 1563.0625,113.8125 Q1563.0625,115.9063 1563.75,116.9766 Q1564.4375,118.0469 1565.7813,118.0469 Q1566.4063,118.0469 1567,117.7734 Q1567.5938,117.5 1568.2188,116.9219 L1568.2188,119.6406 Z " fill="#FFFFFF"/><text fill="#FFFFFF" font-family="sans-serif" font-size="14" lengthAdjust="spacing" textLength="24" x="1585.75" y="118.8467">Bot</text><line style="stroke:#FFFFFF;stroke-width:0.5;" x1="1272" x2="1891" y1="130" y2="130"/><ellipse cx="1282" cy="143.6484" fill="none" rx="3" ry="3" style="stroke:#038048;stroke-width:1.0;"/><text fill="#FFFFFF" font-family="sans-serif" font-size="14" lengthAdjust="spacing" textLength="77" x="1291" y="146.9951">port : short</text><ellipse cx="1282" cy="159.9453" fill="none" rx="3" ry="3" style="stroke:#038048;stroke-width:1.0;"/><text fill="#FFFFFF" font-family="sans-serif" font-size="14" lengthAdjust="spacing" textLength="119" x="1291" y="163.292">password : string</text><rect fill="none" height="6" style="stroke:#C82930;stroke-width:1.0;" width="6" x="1279" y="173.2422"/><text fill="#FFFFFF" font-family="sans-serif" font-size="14" lengthAdjust="spacing" textLength="130" x="1291" y="179.5889">read_buffer : string</text><ellipse cx="1282" cy="192.5391" fill="none" rx="3" ry="3" style="stroke:#038048;stroke-width:1.0;"/><text fill="#FFFFFF" font-family="sans-serif" font-size="14" lengthAdjust="spacing" textLength="122" x="1291" y="195.8857">username : string</text><rect fill="none" height="6" style="stroke:#C82930;stroke-width:1.0;" width="6" x="1279" y="205.8359"/><text fill="#FFFFFF" font-family="sans-serif" font-size="14" lengthAdjust="spacing" textLength="132" x="1291" y="212.1826">write_buffer : string</text><ellipse cx="1282" cy="225.1328" fill="none" rx="3" ry="3" style="stroke:#038048;stroke-width:1.0;"/><text fill="#FFFFFF" font-family="sans-serif" font-size="14" lengthAdjust="spacing" textLength="125" x="1291" y="228.4795">sock : tcp::socket</text><line style="stroke:#FFFFFF;stroke-width:0.5;" x1="1272" x2="1891" y1="235.7813" y2="235.7813"/><ellipse cx="1282" cy="249.4297" fill="#84BE84" rx="3" ry="3" style="stroke:#038048;stroke-width:1.0;"/><text fill="#FFFFFF" font-family="sans-serif" font-size="14" lengthAdjust="spacing" textLength="595" x="1291" y="252.7764">Bot(boost::asio::io_context&amp; io_context, short port, string username, string password)</text><ellipse cx="1282" cy="265.7266" fill="#84BE84" rx="3" ry="3" style="stroke:#038048;stroke-width:1.0;"/><text fill="#FFFFFF" font-family="sans-serif" font-size="14" lengthAdjust="spacing" textLength="108" x="1291" y="269.0732">connect() : void</text><ellipse cx="1282" cy="282.0234" fill="#84BE84" rx="3" ry="3" style="stroke:#038048;stroke-width:1.0;"/><text fill="#FFFFFF" font-family="sans-serif" font-size="14" lengthAdjust="spacing" textLength="107" x="1291" y="285.3701">do_read() : void</text><ellipse cx="1282" cy="298.3203" fill="#84BE84" rx="3" ry="3" style="stroke:#038048;stroke-width:1.0;"/><text fill="#FFFFFF" font-family="sans-serif" font-size="14" lengthAdjust="spacing" textLength="182" x="1291" y="301.667">do_write(string msg) : void</text><ellipse cx="1282" cy="314.6172" fill="#84BE84" rx="3" ry="3" style="stroke:#038048;stroke-width:1.0;"/><text fill="#FFFFFF" font-family="sans-serif" font-size="14" lengthAdjust="spacing" textLength="75" x="1291" y="317.9639">join() : void</text></g><!--class Server--><g id="elem_Server"><rect codeLine="29" fill="#222222" height="292.4531" id="Server" rx="2.5" ry="2.5" style="stroke:#FFFFFF;stroke-width:0.5;" width="575" x="430" y="65.5"/><ellipse cx="691.25" cy="81.5" fill="#ADD1B2" rx="11" ry="11" style="stroke:#181818;stroke-width:1.0;"/><path d="M694.2188,87.1406 Q693.6406,87.4375 693,87.5859 Q692.3594,87.7344 691.6563,87.7344 Q689.1563,87.7344 687.8359,86.0859 Q686.5156,84.4375 686.5156,81.3125 Q686.5156,78.1875 687.8359,76.5313 Q689.1563,74.875 691.6563,74.875 Q692.3594,74.875 693.0078,75.0313 Q693.6563,75.1875 694.2188,75.4844 L694.2188,78.2031 Q693.5938,77.625 693,77.3516 Q692.4063,77.0781 691.7813,77.0781 Q690.4375,77.0781 689.75,78.1484 Q689.0625,79.2188 689.0625,81.3125 Q689.0625,83.4063 689.75,84.4766 Q690.4375,85.5469 691.7813,85.5469 Q692.4063,85.5469 693,85.2734 Q693.5938,85 694.2188,84.4219 L694.2188,87.1406 Z " fill="#FFFFFF"/><text fill="#FFFFFF" font-family="sans-serif" font-size="14" lengthAdjust="spacing" textLength="44" x="711.75" y="86.3467">Server</text><line style="stroke:#FFFFFF;stroke-width:0.5;" x1="431" x2="1004" y1="97.5" y2="97.5"/><rect fill="none" height="6" style="stroke:#C82930;stroke-width:1.0;" width="6" x="438" y="108.1484"/><text fill="#FFFFFF" font-family="sans-serif" font-size="14" lengthAdjust="spacing" textLength="120" x="450" y="114.4951">m_game : Game*</text><ellipse cx="441" cy="127.4453" fill="none" rx="3" ry="3" style="stroke:#038048;stroke-width:1.0;"/><text fill="#FFFFFF" font-family="sans-serif" font-size="14" lengthAdjust="spacing" textLength="194" x="450" y="130.792">m_user_db : UserDatabase*</text><rect fill="none" height="6" style="stroke:#C82930;stroke-width:1.0;" width="6" x="438" y="140.7422"/><text fill="#FFFFFF" font-family="sans-serif" font-size="14" lengthAdjust="spacing" textLength="174" x="450" y="147.0889">acceptor_ : tcp::acceptor</text><rect fill="none" height="6" style="stroke:#C82930;stroke-width:1.0;" width="6" x="438" y="157.0391"/><text fill="#FFFFFF" font-family="sans-serif" font-size="14" lengthAdjust="spacing" textLength="211" x="450" y="163.3857">sessions_ : vector&lt;Session*&gt;</text><line style="stroke:#FFFFFF;stroke-width:0.5;" x1="431" x2="1004" y1="170.6875" y2="170.6875"/><ellipse cx="441" cy="184.3359" fill="#84BE84" rx="3" ry="3" style="stroke:#038048;stroke-width:1.0;"/><text fill="#FFFFFF" font-family="sans-serif" font-size="14" lengthAdjust="spacing" textLength="549" x="450" y="187.6826">Server(boost::asio::io_context&amp; io_context, short port, UserDatabase* user_db)</text><ellipse cx="441" cy="200.6328" fill="#84BE84" rx="3" ry="3" style="stroke:#038048;stroke-width:1.0;"/><text fill="#FFFFFF" font-family="sans-serif" font-size="14" lengthAdjust="spacing" textLength="66" x="450" y="203.9795">~Server()</text><ellipse cx="441" cy="216.9297" fill="#84BE84" rx="3" ry="3" style="stroke:#038048;stroke-width:1.0;"/><text fill="#FFFFFF" font-family="sans-serif" font-size="14" lengthAdjust="spacing" textLength="163" x="450" y="220.2764">isGameRunning() : bool</text><ellipse cx="441" cy="233.2266" fill="#84BE84" rx="3" ry="3" style="stroke:#038048;stroke-width:1.0;"/><text fill="#FFFFFF" font-family="sans-serif" font-size="14" lengthAdjust="spacing" textLength="282" x="450" y="236.5732">isPlayerLoggedIn(string username) : bool</text><ellipse cx="441" cy="249.5234" fill="#84BE84" rx="3" ry="3" style="stroke:#038048;stroke-width:1.0;"/><text fill="#FFFFFF" font-family="sans-serif" font-size="14" lengthAdjust="spacing" text-decoration="underline" textLength="281" x="450" y="252.8701">to_string(ServerPacketType type) : string</text><ellipse cx="441" cy="265.8203" fill="#84BE84" rx="3" ry="3" style="stroke:#038048;stroke-width:1.0;"/><text fill="#FFFFFF" font-family="sans-serif" font-size="14" lengthAdjust="spacing" textLength="277" x="450" y="269.167">getNumPlayersLoggedIn() : unsigned int</text><rect fill="#F24D5C" height="6" style="stroke:#C82930;stroke-width:1.0;" width="6" x="438" y="279.1172"/><text fill="#FFFFFF" font-family="sans-serif" font-size="14" lengthAdjust="spacing" textLength="123" x="450" y="285.4639">do_accept() : void</text><ellipse cx="441" cy="298.4141" fill="#84BE84" rx="3" ry="3" style="stroke:#038048;stroke-width:1.0;"/><text fill="#FFFFFF" font-family="sans-serif" font-size="14" lengthAdjust="spacing" textLength="265" x="450" y="301.7607">eraseSession(Session* session) : void</text><ellipse cx="441" cy="314.7109" fill="#84BE84" rx="3" ry="3" style="stroke:#038048;stroke-width:1.0;"/><text fill="#FFFFFF" font-family="sans-serif" font-size="14" lengthAdjust="spacing" textLength="473" x="450" y="318.0576">sendPacketToAll(ServerPacketType type, vector&lt;string&gt; args) : void</text><ellipse cx="441" cy="331.0078" fill="#84BE84" rx="3" ry="3" style="stroke:#038048;stroke-width:1.0;"/><text fill="#FFFFFF" font-family="sans-serif" font-size="14" lengthAdjust="spacing" textLength="522" x="450" y="334.3545">sendPacketToAllPlayers(ServerPacketType type, vector&lt;string&gt; args) : void</text><ellipse cx="441" cy="347.3047" fill="#84BE84" rx="3" ry="3" style="stroke:#038048;stroke-width:1.0;"/><text fill="#FFFFFF" font-family="sans-serif" font-size="14" lengthAdjust="spacing" textLength="123" x="450" y="350.6514">startGame() : void</text></g><!--class Session--><g id="elem_Session"><rect codeLine="48" fill="#222222" height="308.75" id="Session" rx="2.5" ry="2.5" style="stroke:#FFFFFF;stroke-width:0.5;" width="466" x="306.5" y="442"/><ellipse cx="507.75" cy="458" fill="#ADD1B2" rx="11" ry="11" style="stroke:#181818;stroke-width:1.0;"/><path d="M510.7188,463.6406 Q510.1406,463.9375 509.5,464.0859 Q508.8594,464.2344 508.1563,464.2344 Q505.6563,464.2344 504.3359,462.5859 Q503.0156,460.9375 503.0156,457.8125 Q503.0156,454.6875 504.3359,453.0313 Q505.6563,451.375 508.1563,451.375 Q508.8594,451.375 509.5078,451.5313 Q510.1563,451.6875 510.7188,451.9844 L510.7188,454.7031 Q510.0938,454.125 509.5,453.8516 Q508.9063,453.5781 508.2813,453.5781 Q506.9375,453.5781 506.25,454.6484 Q505.5625,455.7188 505.5625,457.8125 Q505.5625,459.9063 506.25,460.9766 Q506.9375,462.0469 508.2813,462.0469 Q508.9063,462.0469 509.5,461.7734 Q510.0938,461.5 510.7188,460.9219 L510.7188,463.6406 Z " fill="#FFFFFF"/><text fill="#FFFFFF" font-family="sans-serif" font-size="14" lengthAdjust="spacing" textLength="55" x="528.25" y="462.8467">Session</text><line style="stroke:#FFFFFF;stroke-width:0.5;" x1="307.5" x2="771.5" y1="474" y2="474"/><rect fill="none" height="6" style="stroke:#C82930;stroke-width:1.0;" width="6" x="314.5" y="484.6484"/><text fill="#FFFFFF" font-family="sans-serif" font-size="14" lengthAdjust="spacing" textLength="122" x="326.5" y="490.9951">m_player : Player*</text><rect fill="none" height="6" style="stroke:#C82930;stroke-width:1.0;" width="6" x="314.5" y="500.9453"/><text fill="#FFFFFF" font-family="sans-serif" font-size="14" lengthAdjust="spacing" textLength="127" x="326.5" y="507.292">m_server : Server*</text><rect fill="none" height="6" style="stroke:#C82930;stroke-width:1.0;" width="6" x="314.5" y="517.2422"/><text fill="#FFFFFF" font-family="sans-serif" font-size="14" lengthAdjust="spacing" textLength="146" x="326.5" y="523.5889">socket_ : tcp::socket</text><line style="stroke:#FFFFFF;stroke-width:0.5;" x1="307.5" x2="771.5" y1="530.8906" y2="530.8906"/><ellipse cx="317.5" cy="544.5391" fill="#84BE84" rx="3" ry="3" style="stroke:#038048;stroke-width:1.0;"/><text fill="#FFFFFF" font-family="sans-serif" font-size="14" lengthAdjust="spacing" textLength="321" x="326.5" y="547.8857">Session(tcp::socket socket, Server* m_server)</text><ellipse cx="317.5" cy="560.8359" fill="#84BE84" rx="3" ry="3" style="stroke:#038048;stroke-width:1.0;"/><text fill="#FFFFFF" font-family="sans-serif" font-size="14" lengthAdjust="spacing" textLength="77" x="326.5" y="564.1826">~Session()</text><ellipse cx="317.5" cy="577.1328" fill="#84BE84" rx="3" ry="3" style="stroke:#038048;stroke-width:1.0;"/><text fill="#FFFFFF" font-family="sans-serif" font-size="14" lengthAdjust="spacing" textLength="135" x="326.5" y="580.4795">getPlayer() : Player*</text><ellipse cx="317.5" cy="593.4297" fill="#84BE84" rx="3" ry="3" style="stroke:#038048;stroke-width:1.0;"/><text fill="#FFFFFF" font-family="sans-serif" font-size="14" lengthAdjust="spacing" textLength="120" x="326.5" y="596.7764">hasJoined() : bool</text><rect fill="#F24D5C" height="6" style="stroke:#C82930;stroke-width:1.0;" width="6" x="314.5" y="606.7266"/><text fill="#FFFFFF" font-family="sans-serif" font-size="14" lengthAdjust="spacing" textLength="391" x="326.5" y="613.0732">checkCredentials(string username, string password) : int</text><rect fill="#F24D5C" height="6" style="stroke:#C82930;stroke-width:1.0;" width="6" x="314.5" y="623.0234"/><text fill="#FFFFFF" font-family="sans-serif" font-size="14" lengthAdjust="spacing" textLength="169" x="326.5" y="629.3701">process(string data) : int</text><rect fill="#F24D5C" height="6" style="stroke:#C82930;stroke-width:1.0;" width="6" x="314.5" y="639.3203"/><text fill="#FFFFFF" font-family="sans-serif" font-size="14" lengthAdjust="spacing" textLength="336" x="326.5" y="645.667">processChat(Player* player, string message) : int</text><rect fill="#F24D5C" height="6" style="stroke:#C82930;stroke-width:1.0;" width="6" x="314.5" y="655.6172"/><text fill="#FFFFFF" font-family="sans-serif" font-size="14" lengthAdjust="spacing" textLength="351" x="326.5" y="661.9639">processJoin(string username, string password) : int</text><rect fill="#F24D5C" height="6" style="stroke:#C82930;stroke-width:1.0;" width="6" x="314.5" y="671.9141"/><text fill="#FFFFFF" font-family="sans-serif" font-size="14" lengthAdjust="spacing" textLength="236" x="326.5" y="678.2607">processMove(string direction) : int</text><rect fill="#F24D5C" height="6" style="stroke:#C82930;stroke-width:1.0;" width="6" x="314.5" y="688.2109"/><text fill="#FFFFFF" font-family="sans-serif" font-size="14" lengthAdjust="spacing" textLength="107" x="326.5" y="694.5576">do_read() : void</text><rect fill="#F24D5C" height="6" style="stroke:#C82930;stroke-width:1.0;" width="6" x="314.5" y="704.5078"/><text fill="#FFFFFF" font-family="sans-serif" font-size="14" lengthAdjust="spacing" textLength="182" x="326.5" y="710.8545">do_write(string data) : void</text><ellipse cx="317.5" cy="723.8047" fill="#84BE84" rx="3" ry="3" style="stroke:#038048;stroke-width:1.0;"/><text fill="#FFFFFF" font-family="sans-serif" font-size="14" lengthAdjust="spacing" textLength="440" x="326.5" y="727.1514">sendPacket(ServerPacketType type, vector&lt;string&gt; args) : void</text><ellipse cx="317.5" cy="740.1016" fill="#84BE84" rx="3" ry="3" style="stroke:#038048;stroke-width:1.0;"/><text fill="#FFFFFF" font-family="sans-serif" font-size="14" lengthAdjust="spacing" textLength="82" x="326.5" y="743.4482">start() : void</text></g><!--class User--><g id="elem_User"><rect codeLine="68" fill="#222222" height="80.5938" id="User" rx="2.5" ry="2.5" style="stroke:#FFFFFF;stroke-width:0.5;" width="155" x="8" y="171"/><ellipse cx="65.25" cy="187" fill="#ADD1B2" rx="11" ry="11" style="stroke:#181818;stroke-width:1.0;"/><path d="M68.2188,192.6406 Q67.6406,192.9375 67,193.0859 Q66.3594,193.2344 65.6563,193.2344 Q63.1563,193.2344 61.8359,191.5859 Q60.5156,189.9375 60.5156,186.8125 Q60.5156,183.6875 61.8359,182.0313 Q63.1563,180.375 65.6563,180.375 Q66.3594,180.375 67.0078,180.5313 Q67.6563,180.6875 68.2188,180.9844 L68.2188,183.7031 Q67.5938,183.125 67,182.8516 Q66.4063,182.5781 65.7813,182.5781 Q64.4375,182.5781 63.75,183.6484 Q63.0625,184.7188 63.0625,186.8125 Q63.0625,188.9063 63.75,189.9766 Q64.4375,191.0469 65.7813,191.0469 Q66.4063,191.0469 67,190.7734 Q67.5938,190.5 68.2188,189.9219 L68.2188,192.6406 Z " fill="#FFFFFF"/><text fill="#FFFFFF" font-family="sans-serif" font-size="14" lengthAdjust="spacing" textLength="32" x="85.75" y="191.8467">User</text><line style="stroke:#FFFFFF;stroke-width:0.5;" x1="9" x2="162" y1="203" y2="203"/><rect fill="none" height="6" style="stroke:#C82930;stroke-width:1.0;" width="6" x="16" y="213.6484"/><text fill="#FFFFFF" font-family="sans-serif" font-size="14" lengthAdjust="spacing" textLength="126" x="28" y="219.9951">password_ : string</text><rect fill="none" height="6" style="stroke:#C82930;stroke-width:1.0;" width="6" x="16" y="229.9453"/><text fill="#FFFFFF" font-family="sans-serif" font-size="14" lengthAdjust="spacing" textLength="129" x="28" y="236.292">username_ : string</text><line style="stroke:#FFFFFF;stroke-width:0.5;" x1="9" x2="162" y1="243.5938" y2="243.5938"/></g><!--class UserDatabase--><g id="elem_UserDatabase"><rect codeLine="74" fill="#222222" height="194.6719" id="UserDatabase" rx="2.5" ry="2.5" style="stroke:#FFFFFF;stroke-width:0.5;" width="419" x="808" y="499"/><ellipse cx="964.25" cy="515" fill="#ADD1B2" rx="11" ry="11" style="stroke:#181818;stroke-width:1.0;"/><path d="M967.2188,520.6406 Q966.6406,520.9375 966,521.0859 Q965.3594,521.2344 964.6563,521.2344 Q962.1563,521.2344 960.8359,519.5859 Q959.5156,517.9375 959.5156,514.8125 Q959.5156,511.6875 960.8359,510.0313 Q962.1563,508.375 964.6563,508.375 Q965.3594,508.375 966.0078,508.5313 Q966.6563,508.6875 967.2188,508.9844 L967.2188,511.7031 Q966.5938,511.125 966,510.8516 Q965.4063,510.5781 964.7813,510.5781 Q963.4375,510.5781 962.75,511.6484 Q962.0625,512.7188 962.0625,514.8125 Q962.0625,516.9063 962.75,517.9766 Q963.4375,519.0469 964.7813,519.0469 Q965.4063,519.0469 966,518.7734 Q966.5938,518.5 967.2188,517.9219 L967.2188,520.6406 Z " fill="#FFFFFF"/><text fill="#FFFFFF" font-family="sans-serif" font-size="14" lengthAdjust="spacing" textLength="98" x="984.75" y="519.8467">UserDatabase</text><line style="stroke:#FFFFFF;stroke-width:0.5;" x1="809" x2="1226" y1="531" y2="531"/><rect fill="none" height="6" style="stroke:#C82930;stroke-width:1.0;" width="6" x="816" y="541.6484"/><text fill="#FFFFFF" font-family="sans-serif" font-size="14" lengthAdjust="spacing" textLength="238" x="828" y="547.9951">users_ : std::map&lt;string, string&gt;*</text><rect fill="none" height="6" style="stroke:#C82930;stroke-width:1.0;" width="6" x="816" y="557.9453"/><text fill="#FFFFFF" font-family="sans-serif" font-size="14" lengthAdjust="spacing" textLength="109" x="828" y="564.292">filepath_ : string</text><line style="stroke:#FFFFFF;stroke-width:0.5;" x1="809" x2="1226" y1="571.5938" y2="571.5938"/><ellipse cx="819" cy="585.2422" fill="#84BE84" rx="3" ry="3" style="stroke:#038048;stroke-width:1.0;"/><text fill="#FFFFFF" font-family="sans-serif" font-size="14" lengthAdjust="spacing" textLength="201" x="828" y="588.5889">UserDatabase(string filepath)</text><ellipse cx="819" cy="601.5391" fill="#84BE84" rx="3" ry="3" style="stroke:#038048;stroke-width:1.0;"/><text fill="#FFFFFF" font-family="sans-serif" font-size="14" lengthAdjust="spacing" textLength="120" x="828" y="604.8857">~UserDatabase()</text><ellipse cx="819" cy="617.8359" fill="#84BE84" rx="3" ry="3" style="stroke:#038048;stroke-width:1.0;"/><text fill="#FFFFFF" font-family="sans-serif" font-size="14" lengthAdjust="spacing" textLength="393" x="828" y="621.1826">checkPassword(string username, string password) : bool</text><ellipse cx="819" cy="634.1328" fill="#84BE84" rx="3" ry="3" style="stroke:#038048;stroke-width:1.0;"/><text fill="#FFFFFF" font-family="sans-serif" font-size="14" lengthAdjust="spacing" textLength="237" x="828" y="637.4795">userExists(string username) : bool</text><ellipse cx="819" cy="650.4297" fill="#84BE84" rx="3" ry="3" style="stroke:#038048;stroke-width:1.0;"/><text fill="#FFFFFF" font-family="sans-serif" font-size="14" lengthAdjust="spacing" textLength="273" x="828" y="653.7764">hashPassword(string password) : string</text><ellipse cx="819" cy="666.7266" fill="#84BE84" rx="3" ry="3" style="stroke:#038048;stroke-width:1.0;"/><text fill="#FFFFFF" font-family="sans-serif" font-size="14" lengthAdjust="spacing" textLength="340" x="828" y="670.0732">addUser(string username, string password) : void</text><ellipse cx="819" cy="683.0234" fill="#84BE84" rx="3" ry="3" style="stroke:#038048;stroke-width:1.0;"/><text fill="#FFFFFF" font-family="sans-serif" font-size="14" lengthAdjust="spacing" textLength="231" x="828" y="686.3701">loadFromFile(string filepath) : void</text></g><!--class ProcessErrorCode--><g id="elem_ProcessErrorCode"><rect codeLine="87" fill="#222222" height="80.5938" id="ProcessErrorCode" rx="2.5" ry="2.5" style="stroke:#FFFFFF;stroke-width:0.5;" width="158" x="198.5" y="171"/><ellipse cx="213.5" cy="187" fill="#EB937F" rx="11" ry="11" style="stroke:#181818;stroke-width:1.0;"/><path d="M217.6094,193 L209.8906,193 L209.8906,180.6094 L217.6094,180.6094 L217.6094,182.7656 L212.3438,182.7656 L212.3438,185.4375 L217.1094,185.4375 L217.1094,187.5938 L212.3438,187.5938 L212.3438,190.8438 L217.6094,190.8438 L217.6094,193 Z " fill="#FFFFFF"/><text fill="#FFFFFF" font-family="sans-serif" font-size="14" lengthAdjust="spacing" textLength="126" x="227.5" y="191.8467">ProcessErrorCode</text><line style="stroke:#FFFFFF;stroke-width:0.5;" x1="199.5" x2="355.5" y1="203" y2="203"/><text fill="#FFFFFF" font-family="sans-serif" font-size="14" lengthAdjust="spacing" textLength="50" x="204.5" y="219.9951">ERROR</text><text fill="#FFFFFF" font-family="sans-serif" font-size="14" lengthAdjust="spacing" textLength="20" x="204.5" y="236.292">OK</text><line style="stroke:#FFFFFF;stroke-width:0.5;" x1="199.5" x2="355.5" y1="243.5938" y2="243.5938"/></g><!--class ServerPacketType--><g id="elem_ServerPacketType"><rect codeLine="93" fill="#222222" height="210.9688" id="ServerPacketType" rx="2.5" ry="2.5" style="stroke:#FFFFFF;stroke-width:0.5;" width="157" x="7" y="491"/><ellipse cx="22" cy="507" fill="#EB937F" rx="11" ry="11" style="stroke:#181818;stroke-width:1.0;"/><path d="M26.1094,513 L18.3906,513 L18.3906,500.6094 L26.1094,500.6094 L26.1094,502.7656 L20.8438,502.7656 L20.8438,505.4375 L25.6094,505.4375 L25.6094,507.5938 L20.8438,507.5938 L20.8438,510.8438 L26.1094,510.8438 L26.1094,513 Z " fill="#FFFFFF"/><text fill="#FFFFFF" font-family="sans-serif" font-size="14" lengthAdjust="spacing" textLength="125" x="36" y="511.8467">ServerPacketType</text><line style="stroke:#FFFFFF;stroke-width:0.5;" x1="8" x2="163" y1="523" y2="523"/><text fill="#FFFFFF" font-family="sans-serif" font-size="14" lengthAdjust="spacing" textLength="21" x="13" y="539.9951">die</text><text fill="#FFFFFF" font-family="sans-serif" font-size="14" lengthAdjust="spacing" textLength="33" x="13" y="556.292">error</text><text fill="#FFFFFF" font-family="sans-serif" font-size="14" lengthAdjust="spacing" textLength="72" x="13" y="572.5889">game_pkg</text><text fill="#FFFFFF" font-family="sans-serif" font-size="14" lengthAdjust="spacing" textLength="29" x="13" y="588.8857">lose</text><text fill="#FFFFFF" font-family="sans-serif" font-size="14" lengthAdjust="spacing" textLength="64" x="13" y="605.1826">message</text><text fill="#FFFFFF" font-family="sans-serif" font-size="14" lengthAdjust="spacing" textLength="36" x="13" y="621.4795">motd</text><text fill="#FFFFFF" font-family="sans-serif" font-size="14" lengthAdjust="spacing" textLength="41" x="13" y="637.7764">player</text><text fill="#FFFFFF" font-family="sans-serif" font-size="14" lengthAdjust="spacing" textLength="26" x="13" y="654.0732">pos</text><text fill="#FFFFFF" font-family="sans-serif" font-size="14" lengthAdjust="spacing" textLength="24" x="13" y="670.3701">tick</text><text fill="#FFFFFF" font-family="sans-serif" font-size="14" lengthAdjust="spacing" textLength="23" x="13" y="686.667">win</text><line style="stroke:#FFFFFF;stroke-width:0.5;" x1="8" x2="163" y1="693.9688" y2="693.9688"/></g><!--class Session::empty--><g id="elem_Session::empty"><rect codeLine="107" fill="#222222" height="64.2969" id="Session::empty" rx="2.5" ry="2.5" style="stroke:#FFFFFF;stroke-width:0.5;" width="140" x="469.5" y="876.5"/><ellipse cx="484.5" cy="892.5" fill="#EB937F" rx="11" ry="11" style="stroke:#181818;stroke-width:1.0;"/><path d="M488.6094,898.5 L480.8906,898.5 L480.8906,886.1094 L488.6094,886.1094 L488.6094,888.2656 L483.3438,888.2656 L483.3438,890.9375 L488.1094,890.9375 L488.1094,893.0938 L483.3438,893.0938 L483.3438,896.3438 L488.6094,896.3438 L488.6094,898.5 Z " fill="#FFFFFF"/><text fill="#FFFFFF" font-family="sans-serif" font-size="14" lengthAdjust="spacing" textLength="108" x="498.5" y="897.3467">Session::empty</text><line style="stroke:#FFFFFF;stroke-width:0.5;" x1="470.5" x2="608.5" y1="908.5" y2="908.5"/><text fill="#FFFFFF" font-family="sans-serif" font-size="14" lengthAdjust="spacing" textLength="79" x="475.5" y="925.4951">max_length</text><line style="stroke:#FFFFFF;stroke-width:0.5;" x1="470.5" x2="608.5" y1="932.7969" y2="932.7969"/></g><!--reverse link game.Game to game.Player--><g id="link_game.Game_game.Player"><path codeLine="197" d="M1497.15,723.17 C1491.02,752.42 1484.58,783.12 1478.76,810.89 " fill="none" id="game.Game-backto-game.Player" style="stroke:#FFFFFF;stroke-width:1.0;"/><polygon fill="#FFFFFF" points="1499.85,710.29,1494.7017,715.3393,1497.3825,722.0336,1502.5308,716.9843,1499.85,710.29" style="stroke:#FFFFFF;stroke-width:1.0;"/></g><!--reverse link Server to game.Game--><g id="link_Server_game.Game"><path codeLine="200" d="M997.04,363.14 C1031.37,378.83 1066.38,393.55 1100.5,406 C1162.28,428.54 1183.19,416.21 1244.5,440 C1275.65,452.09 1307.59,467.1 1338.22,482.99 " fill="none" id="Server-backto-game.Game" style="stroke:#FFFFFF;stroke-width:1.0;"/><polygon fill="none" points="984.92,357.56,988.6958,363.7036,995.819,362.5812,992.0432,356.4376,984.92,357.56" style="stroke:#FFFFFF;stroke-width:1.0;"/></g><!--reverse link Server to Session--><g id="link_Server_Session"><path codeLine="203" d="M631.93,369.58 C620.59,393.42 609.18,417.99 598.42,441.76 " fill="none" id="Server-backto-Session" style="stroke:#FFFFFF;stroke-width:1.0;"/><polygon fill="none" points="637.67,357.57,631.4751,361.261,632.4995,368.399,638.6944,364.708,637.67,357.57" style="stroke:#FFFFFF;stroke-width:1.0;"/></g><!--reverse link Session to Server--><g id="link_Session_Server"><path codeLine="212" d="M629.81,429.98 C641.22,405.88 652.6,381.22 663.22,357.57 " fill="none" id="Session-backto-Server" style="stroke:#FFFFFF;stroke-width:1.0;"/><polygon fill="none" points="624.21,441.76,630.3975,438.0567,629.359,430.9208,623.1714,434.6241,624.21,441.76" style="stroke:#FFFFFF;stroke-width:1.0;"/></g><!--reverse link Server to UserDatabase--><g id="link_Server_UserDatabase"><path codeLine="206" d="M839.19,367.86 C873.88,412.14 910.66,459.1 941.75,498.79 " fill="none" id="Server-backto-UserDatabase" style="stroke:#FFFFFF;stroke-width:1.0;"/><polygon fill="none" points="831.13,357.57,831.6819,364.76,838.531,367.0159,837.9791,359.8259,831.13,357.57" style="stroke:#FFFFFF;stroke-width:1.0;"/></g><!--reverse link Session to game.Player--><g id="link_Session_game.Player"><path codeLine="209" d="M784.68,748.57 C786.62,749.39 788.56,750.2 790.5,751 C968.87,824.22 1188.75,867.41 1326.33,889.28 " fill="none" id="Session-backto-game.Player" style="stroke:#FFFFFF;stroke-width:1.0;"/><polygon fill="none" points="772.73,743.36,776.629,749.4261,783.7281,748.1601,779.8291,742.094,772.73,743.36" style="stroke:#FFFFFF;stroke-width:1.0;"/></g><!--reverse link game.Player to game.Player::position--><g id="link_game.Player_game.Player::position"><path codeLine="221" d="M1458.5,1021.33 C1458.5,1037.15 1458.5,1052.48 1458.5,1065.63 " fill="none" id="game.Player-backto-game.Player::position" style="stroke:#FFFFFF;stroke-width:1.0;"/><ellipse cx="1458.5" cy="1014.06" fill="#FFFFFF" rx="8" ry="8" style="stroke:#FFFFFF;stroke-width:1.0;"/><line style="stroke:#FFFFFF;stroke-width:1.0;" x1="1458.5" x2="1458.5" y1="1022.06" y2="1006.06"/><line style="stroke:#FFFFFF;stroke-width:1.0;" x1="1450.5" x2="1466.5" y1="1014.06" y2="1014.06"/></g><!--reverse link Session to Session::empty--><g id="link_Session_Session::empty"><path codeLine="224" d="M539.5,766.15 C539.5,808.5 539.5,849.48 539.5,876.31 " fill="none" id="Session-backto-Session::empty" style="stroke:#FFFFFF;stroke-width:1.0;"/><ellipse cx="539.5" cy="759.14" fill="#FFFFFF" rx="8" ry="8" style="stroke:#FFFFFF;stroke-width:1.0;"/><line style="stroke:#FFFFFF;stroke-width:1.0;" x1="539.5" x2="539.5" y1="767.14" y2="751.14"/><line style="stroke:#FFFFFF;stroke-width:1.0;" x1="531.5" x2="547.5" y1="759.14" y2="759.14"/></g><!--SRC=[fLVRRjms47sMle90W6QlTbhqfO9X877iDAqR6tQAF0fSYPOOIwH0ShrU6EwtTyWXjTIkqZgj7rRKt7XcT3X3wtikEgfeIzwpExfkp8KKvamsKf4lDJSiJKzkpRPXfsafYtNBX7bAanKjxYibrw8idEMhDp- - -VdDB-bpcbAbv0PCBhbW6ERLdVkpogAXMeFoNU_lJNvoVx4NRfxieu4W7JZJYZszpFhasCE7l-FNv6hrbHL6azV77WsvPUg1AGBXvhYShAJK9ikevZBBkCmBYCeUpGzajruGNKjbI0S_2_AdPkezDNH5DPkHDRpbvMeA0V_o4M6zRFEAjenav0CyPg1iSsy9ia44q75jhMxMGd1HJQPW0Q0QfxXkw9QfIrbLhFme9jeeC76R2d29J9-qeOONpyJ87Aqc2ESQ2iZCvst7Y84Vwu9wG4cBWdL6gXo4fkYW2bu00IjcFgrRt5_t0ApxMcXU2LOIBWm4qKn3xOIsGHwWt5ATtA9eTWhgKkOOrVa-I5v2SAOWTMyr2TR4HuhiD1EbJq2-RPhnb1PXMyphb51LwMy7yIdznrY6AcE_rYuRe5rFBeVVimkJSsNLqcv2yB7m99oHDjTkvSc33bEiFQ9qk-1ovbZLkVMU4AE0q0U623NLlqauC6L4fsLHi-B-JB4IpZMdZTwdqy8pWtIGpKQgqlhYH-wKB01Wy2Y1lGVAivgQYST546WViGKz7EC37mlo-s7y8HzO3uKh-6AUDfwHhiuzgV4LgQWOBICYMj56GVFOJ-o0El-3BcDKiIt0ycGPSipZSnag4Gc7hg5xEAh5Wf377MzOHqtjg3Kmi197X6k_yulAxxkCjJb_vDheRxSYXruZz3BBMjhvweJ0fvQr0M2SjsLjlGyhHj4RqhAqIRq8klyKZQJbXPBj1MnyKANu0p6nRiar4kqSvfiwawKhzFdDpTLDcbpzlZCx80MObHnc4xEEQMA7GDxT0-H6QX3xOm0BQG0K7X9uIfqcqBtlqsJ3HHpUzOGiOsrdjZPuIn_pXedArCxA9grXH39IiwQ3ibiRvugZ6jwILKDjO7pcgyejrym_l40s02SfjbJu1yehnPW8JnIrW5yOkbkX6BeA_ePNROzSii5HZKzKRLdJo4s_SCBdlMpSy0JmoFWF_YsPkyuRpn-ouQMf5uEP1BNWLMtwiuajwJJq93tj8_sJ0TU70zbrvbzTz959wBHVB9unvH9HZIXS2kFHmgoQxcPh06izFTvHvTpMy5BABcft1mq92X-AZAvOPZzy_2dX-U1iyTnnQneWIeG77EQs3JjSKWybrj1TrIRnCSPBHXYclHGc6h9tA1DueHeuVrR0bhWwOK-iZx7gSUL-ubaMj5Y2np1DalasBFTPkf9cHz9t-9BCOV7zbyf_RMGsiZMr5R1-xjqh1uMo4ovVhU_ksA20yn1wOEnctvYrdPdxynFcXXG2IZbWrE5GTRB1L6rr5Qk_sg4VSz2M5M_i7qNDm9CAAAzY3RKVHDUympiyshoje1rLJZLYOsb_v3h6RBbqZUG8lp0u7_dhlmmQQxSdF_9DTryS3r7KuMLFZksoK_aOQP_X9wODd74P_MiIkPFvCDoEbd7WUOJJ3uU_0G00]--></g></svg>